<svg xmlns="http://www.w3.org/2000/svg" version="1.1" xmlns:xlink="http://www.w3.org/1999/xlink" xmlns:svgjs="http://svgjs.dev/svgjs" width="1000" height="623" viewBox="0 0 1000 623"><g transform="matrix(1,0,0,1,-0.6060606060606233,0.2522267206477409)"><svg viewBox="0 0 396 247" data-background-color="#7a26c1" preserveAspectRatio="xMidYMid meet" height="623" width="1000" xmlns="http://www.w3.org/2000/svg" xmlns:xlink="http://www.w3.org/1999/xlink"><g id="tight-bounds" transform="matrix(1,0,0,1,0.2400000000000091,-0.09999999999999432)"><svg viewBox="0 0 395.52 247.2" height="247.2" width="395.52"><g><svg></svg></g><g><svg viewBox="0 0 395.52 247.2" height="247.2" width="395.52"><mask id="830dbf1a-23fc-40a8-abc8-7db2671adb9f"><rect width="640" height="400" fill="white"></rect><g transform="matrix(1,0,0,1,39.55199999999999,99.7629752508361)"><svg viewBox="0 0 316.416 47.67404949832777" height="47.67404949832777" width="316.416"><g><svg viewBox="0 0 316.416 47.67404949832777" height="47.67404949832777" width="316.416"><g><svg viewBox="0 0 316.416 47.67404949832777" height="47.67404949832777" width="316.416"><g><svg viewBox="0 0 316.416 47.67404949832777" height="47.67404949832777" width="316.416"><g id="SvgjsG1010"><svg viewBox="0 0 316.416 47.67404949832777" height="47.67404949832777" width="316.416" id="SvgjsSvg1009"><g><svg viewBox="0 0 316.416 47.67404949832777" height="47.67404949832777" width="316.416"><g transform="matrix(1,0,0,1,0,0)"><svg width="316.416" viewBox="-1.7999999999999998 -41.45 299.98 46.050000000000004" height="47.67404949832777" data-palette-color="#ffffff"><path d="M16.2 0.6L16.2 0.6Q13.05 0.6 10.48-0.35 7.9-1.3 6.08-3.4 4.25-5.5 3.23-8.9 2.2-12.3 2.2-17.2L2.2-17.2Q2.2-22.1 3.23-25.58 4.25-29.05 6.08-31.25 7.9-33.45 10.48-34.48 13.05-35.5 16.2-35.5L16.2-35.5Q20.9-35.5 23.63-33.48 26.35-31.45 28.1-27.35L28.1-27.35 21.9-24.15Q21.6-25.25 21.23-26.2 20.85-27.15 20.2-27.8 19.55-28.45 18.57-28.83 17.6-29.2 16.2-29.2L16.2-29.2Q13.2-29.2 11.5-27.4 9.8-25.6 9.8-22L9.8-22 9.8-12.9Q9.8-9.3 11.5-7.5 13.2-5.7 16.2-5.7L16.2-5.7Q17.6-5.7 18.63-6.13 19.65-6.55 20.35-7.28 21.05-8 21.5-8.97 21.95-9.95 22.3-11.1L22.3-11.1 28.2-7.7Q27.3-5.75 26.2-4.2 25.1-2.65 23.68-1.58 22.25-0.5 20.4 0.05 18.55 0.6 16.2 0.6ZM42.15 0.6L42.15 0.6Q36.65 0.6 33.82-2.75 31-6.1 31-13.1L31-13.1Q31-20.1 33.82-23.48 36.65-26.85 42.15-26.85L42.15-26.85Q47.65-26.85 50.47-23.48 53.3-20.1 53.3-13.1L53.3-13.1Q53.3-6.1 50.47-2.75 47.65 0.6 42.15 0.6ZM42.15-4.95L42.15-4.95Q46-4.95 46-9.45L46-9.45 46-16.8Q46-21.3 42.15-21.3L42.15-21.3Q38.3-21.3 38.3-16.8L38.3-16.8 38.3-9.45Q38.3-4.95 42.15-4.95ZM64.9 0L57.9 0 57.9-26.25 64.9-26.25 64.9-21.8 65.7-21.8Q66-22.85 66.52-23.75 67.05-24.65 67.77-25.35 68.5-26.05 69.5-26.45 70.5-26.85 71.8-26.85L71.8-26.85Q74.34-26.85 75.84-25.48 77.34-24.1 78.05-21.55L78.05-21.55 78.7-21.55Q79.55-24.3 81.37-25.58 83.2-26.85 85.59-26.85L85.59-26.85Q88.95-26.85 90.72-24.45 92.5-22.05 92.5-17.85L92.5-17.85 92.5 0 85.5 0 85.5-16.5Q85.5-21.15 82.45-21.15L82.45-21.15Q80.9-21.15 79.8-20.18 78.7-19.2 78.7-17.45L78.7-17.45 78.7 0 71.7 0 71.7-16.5Q71.7-21.15 68.65-21.15L68.65-21.15Q67.09-21.15 66-20.18 64.9-19.2 64.9-17.45L64.9-17.45 64.9 0ZM105.29 0L98.29 0 98.29-26.25 105.29-26.25 105.29-21.8 106.09-21.8Q106.39-22.85 106.92-23.75 107.44-24.65 108.17-25.35 108.89-26.05 109.89-26.45 110.89-26.85 112.19-26.85L112.19-26.85Q114.74-26.85 116.24-25.48 117.74-24.1 118.44-21.55L118.44-21.55 119.09-21.55Q119.94-24.3 121.77-25.58 123.59-26.85 125.99-26.85L125.99-26.85Q129.34-26.85 131.12-24.45 132.89-22.05 132.89-17.85L132.89-17.85 132.89 0 125.89 0 125.89-16.5Q125.89-21.15 122.84-21.15L122.84-21.15Q121.29-21.15 120.19-20.18 119.09-19.2 119.09-17.45L119.09-17.45 119.09 0 112.09 0 112.09-16.5Q112.09-21.15 109.04-21.15L109.04-21.15Q107.49-21.15 106.39-20.18 105.29-19.2 105.29-17.45L105.29-17.45 105.29 0ZM152.59 0L152.59-4.45 151.79-4.45Q151.49-3.4 150.97-2.5 150.44-1.6 149.69-0.9 148.94-0.2 147.94 0.2 146.94 0.6 145.59 0.6L145.59 0.6Q142.09 0.6 140.24-1.78 138.39-4.15 138.39-8.4L138.39-8.4 138.39-26.25 145.39-26.25 145.39-9.75Q145.39-5.1 148.64-5.1L148.64-5.1Q150.24-5.1 151.42-6.08 152.59-7.05 152.59-8.8L152.59-8.8 152.59-26.25 159.59-26.25 159.59 0 152.59 0ZM172.69 0L165.69 0 165.69-26.25 172.69-26.25 172.69-21.8 173.49-21.8Q173.79-22.85 174.29-23.75 174.79-24.65 175.54-25.35 176.29-26.05 177.29-26.45 178.29-26.85 179.59-26.85L179.59-26.85Q183.14-26.85 185.01-24.48 186.89-22.1 186.89-17.85L186.89-17.85 186.89 0 179.89 0 179.89-16.5Q179.89-21.15 176.64-21.15L176.64-21.15Q175.04-21.15 173.86-20.18 172.69-19.2 172.69-17.45L172.69-17.45 172.69 0ZM196.19-29.45L196.19-29.45Q194.04-29.45 193.06-30.38 192.09-31.3 192.09-32.9L192.09-32.9 192.09-34Q192.09-35.6 193.06-36.52 194.04-37.45 196.19-37.45L196.19-37.45Q198.34-37.45 199.31-36.52 200.29-35.6 200.29-34L200.29-34 200.29-32.9Q200.29-31.3 199.31-30.38 198.34-29.45 196.19-29.45ZM192.69 0L192.69-26.25 199.69-26.25 199.69 0 192.69 0ZM227.83-28.65L219.48-28.65 219.48 0 212.33 0 212.33-28.65 203.98-28.65 203.98-34.9 227.83-34.9 227.83-28.65ZM236.88 0L229.88 0 229.88-26.25 236.88-26.25 236.88-20.65 237.68-20.65Q237.83-21.75 238.18-22.78 238.53-23.8 239.16-24.58 239.78-25.35 240.73-25.8 241.68-26.25 242.98-26.25L242.98-26.25 244.23-26.25 244.23-19.15 242.43-19.15Q239.58-19.15 238.23-18.35 236.88-17.55 236.88-15.3L236.88-15.3 236.88 0ZM258.33 0.6L258.33 0.6Q252.93 0.6 249.7-2.83 246.48-6.25 246.48-13.1L246.48-13.1Q246.48-20.1 249.3-23.48 252.13-26.85 257.63-26.85L257.63-26.85Q263.13-26.85 265.95-23.48 268.78-20.1 268.78-13.1L268.78-13.1 268.78-11.4 253.78-11.4 253.78-9.75Q253.78-7.55 255.13-6.23 256.48-4.9 258.83-4.9L258.83-4.9Q260.78-4.9 262.15-5.78 263.53-6.65 264.68-8.2L264.68-8.2 268.23-4.05Q266.63-1.9 264.15-0.65 261.68 0.6 258.33 0.6ZM257.63-21.6L257.63-21.6Q253.78-21.6 253.78-17.1L253.78-17.1 253.78-15.5 261.48-15.5 261.48-17.1Q261.48-21.6 257.63-21.6ZM283.72 0.6L283.72 0.6Q278.32 0.6 275.1-2.83 271.88-6.25 271.88-13.1L271.88-13.1Q271.88-20.1 274.7-23.48 277.52-26.85 283.02-26.85L283.02-26.85Q288.52-26.85 291.35-23.48 294.18-20.1 294.18-13.1L294.18-13.1 294.18-11.4 279.18-11.4 279.18-9.75Q279.18-7.55 280.52-6.23 281.88-4.9 284.22-4.9L284.22-4.9Q286.18-4.9 287.55-5.78 288.93-6.65 290.07-8.2L290.07-8.2 293.63-4.05Q292.02-1.9 289.55-0.65 287.07 0.6 283.72 0.6ZM283.02-21.6L283.02-21.6Q279.18-21.6 279.18-17.1L279.18-17.1 279.18-15.5 286.88-15.5 286.88-17.1Q286.88-21.6 283.02-21.6Z" opacity="1" transform="matrix(1,0,0,1,0,0)" fill="black" class="wordmark-text-0" id="SvgjsPath1008" stroke-width="7" stroke="black" stroke-linejoin="round"></path></svg></g></svg></g></svg></g></svg></g><g></g></svg></g></svg></g></svg></g></mask><g transform="matrix(1,0,0,1,39.55199999999999,99.7629752508361)"><svg viewBox="0 0 316.416 47.67404949832777" height="47.67404949832777" width="316.416"><g><svg viewBox="0 0 316.416 47.67404949832777" height="47.67404949832777" width="316.416"><g><svg viewBox="0 0 316.416 47.67404949832777" height="47.67404949832777" width="316.416"><g><svg viewBox="0 0 316.416 47.67404949832777" height="47.67404949832777" width="316.416"><g id="textblocktransform"><svg viewBox="0 0 316.416 47.67404949832777" height="47.67404949832777" width="316.416" id="textblock"><g><svg viewBox="0 0 316.416 47.67404949832777" height="47.67404949832777" width="316.416"><g transform="matrix(1,0,0,1,0,0)"><svg width="316.416" viewBox="-1.7999999999999998 -41.45 299.98 46.050000000000004" height="47.67404949832777" data-palette-color="#ffffff"><path d="M16.2 0.6L16.2 0.6Q13.05 0.6 10.48-0.35 7.9-1.3 6.08-3.4 4.25-5.5 3.23-8.9 2.2-12.3 2.2-17.2L2.2-17.2Q2.2-22.1 3.23-25.58 4.25-29.05 6.08-31.25 7.9-33.45 10.48-34.48 13.05-35.5 16.2-35.5L16.2-35.5Q20.9-35.5 23.63-33.48 26.35-31.45 28.1-27.35L28.1-27.35 21.9-24.15Q21.6-25.25 21.23-26.2 20.85-27.15 20.2-27.8 19.55-28.45 18.57-28.83 17.6-29.2 16.2-29.2L16.2-29.2Q13.2-29.2 11.5-27.4 9.8-25.6 9.8-22L9.8-22 9.8-12.9Q9.8-9.3 11.5-7.5 13.2-5.7 16.2-5.7L16.2-5.7Q17.6-5.7 18.63-6.13 19.65-6.55 20.35-7.28 21.05-8 21.5-8.97 21.95-9.95 22.3-11.1L22.3-11.1 28.2-7.7Q27.3-5.75 26.2-4.2 25.1-2.65 23.68-1.58 22.25-0.5 20.4 0.05 18.55 0.6 16.2 0.6ZM42.15 0.6L42.15 0.6Q36.65 0.6 33.82-2.75 31-6.1 31-13.1L31-13.1Q31-20.1 33.82-23.48 36.65-26.85 42.15-26.85L42.15-26.85Q47.65-26.85 50.47-23.48 53.3-20.1 53.3-13.1L53.3-13.1Q53.3-6.1 50.47-2.75 47.65 0.6 42.15 0.6ZM42.15-4.95L42.15-4.95Q46-4.95 46-9.45L46-9.45 46-16.8Q46-21.3 42.15-21.3L42.15-21.3Q38.3-21.3 38.3-16.8L38.3-16.8 38.3-9.45Q38.3-4.95 42.15-4.95ZM64.9 0L57.9 0 57.9-26.25 64.9-26.25 64.9-21.8 65.7-21.8Q66-22.85 66.52-23.75 67.05-24.65 67.77-25.35 68.5-26.05 69.5-26.45 70.5-26.85 71.8-26.85L71.8-26.85Q74.34-26.85 75.84-25.48 77.34-24.1 78.05-21.55L78.05-21.55 78.7-21.55Q79.55-24.3 81.37-25.58 83.2-26.85 85.59-26.85L85.59-26.85Q88.95-26.85 90.72-24.45 92.5-22.05 92.5-17.85L92.5-17.85 92.5 0 85.5 0 85.5-16.5Q85.5-21.15 82.45-21.15L82.45-21.15Q80.9-21.15 79.8-20.18 78.7-19.2 78.7-17.45L78.7-17.45 78.7 0 71.7 0 71.7-16.5Q71.7-21.15 68.65-21.15L68.65-21.15Q67.09-21.15 66-20.18 64.9-19.2 64.9-17.45L64.9-17.45 64.9 0ZM105.29 0L98.29 0 98.29-26.25 105.29-26.25 105.29-21.8 106.09-21.8Q106.39-22.85 106.92-23.75 107.44-24.65 108.17-25.35 108.89-26.05 109.89-26.45 110.89-26.85 112.19-26.85L112.19-26.85Q114.74-26.85 116.24-25.48 117.74-24.1 118.44-21.55L118.44-21.55 119.09-21.55Q119.94-24.3 121.77-25.58 123.59-26.85 125.99-26.85L125.99-26.85Q129.34-26.85 131.12-24.45 132.89-22.05 132.89-17.85L132.89-17.85 132.89 0 125.89 0 125.89-16.5Q125.89-21.15 122.84-21.15L122.84-21.15Q121.29-21.15 120.19-20.18 119.09-19.2 119.09-17.45L119.09-17.45 119.09 0 112.09 0 112.09-16.5Q112.09-21.15 109.04-21.15L109.04-21.15Q107.49-21.15 106.39-20.18 105.29-19.2 105.29-17.45L105.29-17.45 105.29 0ZM152.59 0L152.59-4.45 151.79-4.45Q151.49-3.4 150.97-2.5 150.44-1.6 149.69-0.9 148.94-0.2 147.94 0.2 146.94 0.6 145.59 0.6L145.59 0.6Q142.09 0.6 140.24-1.78 138.39-4.15 138.39-8.4L138.39-8.4 138.39-26.25 145.39-26.25 145.39-9.75Q145.39-5.1 148.64-5.1L148.64-5.1Q150.24-5.1 151.42-6.08 152.59-7.05 152.59-8.8L152.59-8.8 152.59-26.25 159.59-26.25 159.59 0 152.59 0ZM172.69 0L165.69 0 165.69-26.25 172.69-26.25 172.69-21.8 173.49-21.8Q173.79-22.85 174.29-23.75 174.79-24.65 175.54-25.35 176.29-26.05 177.29-26.45 178.29-26.85 179.59-26.85L179.59-26.85Q183.14-26.85 185.01-24.48 186.89-22.1 186.89-17.85L186.89-17.85 186.89 0 179.89 0 179.89-16.5Q179.89-21.15 176.64-21.15L176.64-21.15Q175.04-21.15 173.86-20.18 172.69-19.2 172.69-17.45L172.69-17.45 172.69 0ZM196.19-29.45L196.19-29.45Q194.04-29.45 193.06-30.38 192.09-31.3 192.09-32.9L192.09-32.9 192.09-34Q192.09-35.6 193.06-36.52 194.04-37.45 196.19-37.45L196.19-37.45Q198.34-37.45 199.31-36.52 200.29-35.6 200.29-34L200.29-34 200.29-32.9Q200.29-31.3 199.31-30.38 198.34-29.45 196.19-29.45ZM192.69 0L192.69-26.25 199.69-26.25 199.69 0 192.69 0ZM227.83-28.65L219.48-28.65 219.48 0 212.33 0 212.33-28.65 203.98-28.65 203.98-34.9 227.83-34.9 227.83-28.65ZM236.88 0L229.88 0 229.88-26.25 236.88-26.25 236.88-20.65 237.68-20.65Q237.83-21.75 238.18-22.78 238.53-23.8 239.16-24.58 239.78-25.35 240.73-25.8 241.68-26.25 242.98-26.25L242.98-26.25 244.23-26.25 244.23-19.15 242.43-19.15Q239.58-19.15 238.23-18.35 236.88-17.55 236.88-15.3L236.88-15.3 236.88 0ZM258.33 0.6L258.33 0.6Q252.93 0.6 249.7-2.83 246.48-6.25 246.48-13.1L246.48-13.1Q246.48-20.1 249.3-23.48 252.13-26.85 257.63-26.85L257.63-26.85Q263.13-26.85 265.95-23.48 268.78-20.1 268.78-13.1L268.78-13.1 268.78-11.4 253.78-11.4 253.78-9.75Q253.78-7.55 255.13-6.23 256.48-4.9 258.83-4.9L258.83-4.9Q260.78-4.9 262.15-5.78 263.53-6.65 264.68-8.2L264.68-8.2 268.23-4.05Q266.63-1.9 264.15-0.65 261.68 0.6 258.33 0.6ZM257.63-21.6L257.63-21.6Q253.78-21.6 253.78-17.1L253.78-17.1 253.78-15.5 261.48-15.5 261.48-17.1Q261.48-21.6 257.63-21.6ZM283.72 0.6L283.72 0.6Q278.32 0.6 275.1-2.83 271.88-6.25 271.88-13.1L271.88-13.1Q271.88-20.1 274.7-23.48 277.52-26.85 283.02-26.85L283.02-26.85Q288.52-26.85 291.35-23.48 294.18-20.1 294.18-13.1L294.18-13.1 294.18-11.4 279.18-11.4 279.18-9.75Q279.18-7.55 280.52-6.23 281.88-4.9 284.22-4.9L284.22-4.9Q286.18-4.9 287.55-5.78 288.93-6.65 290.07-8.2L290.07-8.2 293.63-4.05Q292.02-1.9 289.55-0.65 287.07 0.6 283.72 0.6ZM283.02-21.6L283.02-21.6Q279.18-21.6 279.18-17.1L279.18-17.1 279.18-15.5 286.88-15.5 286.88-17.1Q286.88-21.6 283.02-21.6Z" opacity="1" transform="matrix(1,0,0,1,0,0)" fill="#ffffff" class="wordmark-text-0" data-fill-palette-color="primary" id="text-0"></path></svg></g></svg></g></svg></g></svg></g><g></g></svg></g></svg></g></svg></g><g mask="url(#830dbf1a-23fc-40a8-abc8-7db2671adb9f)"><g transform="matrix(2.9541812749243985, 0, 0, 2.9541812749243985, 91.32380284574884, 1.0000000000000142)"><svg xmlns="http://www.w3.org/2000/svg" xmlns:xlink="http://www.w3.org/1999/xlink" version="1.1" x="0" y="0" viewBox="11.567 6.625 72.05799999999999 83.00099999999999" enable-background="new 0 0 100 100" xml:space="preserve" height="83.00099999999999" width="72.05799999999999" class="icon-none" data-fill-palette-color="accent" id="none"><g fill="#ffffff" data-fill-palette-color="accent"><path d="M49.105 24.244l0.169 0.071c0.749 0.202 1.537 0.31 2.351 0.31 4.971 0 9-4.029 9-9s-4.029-9-9-9-9.001 4.029-9.001 9c0 2.4 0.938 4.581 2.47 6.194l0.004-0.002L23.314 53.036l-0.028-0.007c-0.846-0.263-1.759-0.404-2.69-0.404-4.971 0-9.029 4.029-9.029 9s3.971 9 8.941 9c3.189 0 5.942-1.659 7.506-4.161l37.611 13.558 0.021 0.002c-0.014 0.199-0.021 0.399-0.021 0.602 0 4.971 4.029 9 9 9s9-4.029 9-9-4.029-9-9-9c-3.025 0-5.701 1.492-7.333 3.781l0.003 0.003L29.39 61.625c0-2.23-0.39-4.271-2.39-5.844v0.006l22.045-31.477" fill="#ffffff" data-fill-palette-color="accent"></path></g></svg></g></g></svg></g><defs></defs></svg><rect width="395.52" height="247.2" fill="none" stroke="none" visibility="hidden"></rect></g></svg></g></svg>